<svg width="196" height="24" viewBox="0 0 196 24" fill="none" xmlns="http://www.w3.org/2000/svg">
<path d="M10.608 23.384C7.42933 23.384 4.944 22.4987 3.152 20.728C1.36 18.9573 0.464 16.4293 0.464 13.144V0.599998H5.648V12.952C5.648 15.0853 6.08533 16.6213 6.96 17.56C7.83467 18.4987 9.06133 18.968 10.64 18.968C12.2187 18.968 13.4453 18.4987 14.32 17.56C15.1947 16.6213 15.632 15.0853 15.632 12.952V0.599998H20.752V13.144C20.752 16.4293 19.856 18.9573 18.064 20.728C16.272 22.4987 13.7867 23.384 10.608 23.384ZM29.0748 23V0.599998H33.3628L46.5788 16.728H44.4988V0.599998H49.6188V23H45.3628L32.1148 6.872H34.1948V23H29.0748ZM58.1185 23V0.599998H63.3025V23H58.1185ZM76.6185 10.68H87.3705V14.84H76.6185V10.68ZM77.0025 23H71.8185V0.599998H88.7465V4.76H77.0025V23ZM106.117 23.384C104.347 23.384 102.704 23.096 101.189 22.52C99.6959 21.944 98.3946 21.1333 97.2853 20.088C96.1973 19.0427 95.3439 17.816 94.7253 16.408C94.1279 15 93.8293 13.464 93.8293 11.8C93.8293 10.136 94.1279 8.6 94.7253 7.192C95.3439 5.784 96.2079 4.55733 97.3173 3.512C98.4266 2.46667 99.7279 1.656 101.221 1.08C102.715 0.503999 104.336 0.216 106.085 0.216C107.856 0.216 109.477 0.503999 110.949 1.08C112.443 1.656 113.733 2.46667 114.821 3.512C115.931 4.55733 116.795 5.784 117.413 7.192C118.032 8.57867 118.341 10.1147 118.341 11.8C118.341 13.464 118.032 15.0107 117.413 16.44C116.795 17.848 115.931 19.0747 114.821 20.12C113.733 21.144 112.443 21.944 110.949 22.52C109.477 23.096 107.867 23.384 106.117 23.384ZM106.085 18.968C107.088 18.968 108.005 18.7973 108.837 18.456C109.691 18.1147 110.437 17.624 111.077 16.984C111.717 16.344 112.208 15.5867 112.549 14.712C112.912 13.8373 113.093 12.8667 113.093 11.8C113.093 10.7333 112.912 9.76267 112.549 8.888C112.208 8.01333 111.717 7.256 111.077 6.616C110.459 5.976 109.723 5.48533 108.869 5.144C108.016 4.80267 107.088 4.632 106.085 4.632C105.083 4.632 104.155 4.80267 103.301 5.144C102.469 5.48533 101.733 5.976 101.093 6.616C100.453 7.256 99.9519 8.01333 99.5893 8.888C99.2479 9.76267 99.0773 10.7333 99.0773 11.8C99.0773 12.8453 99.2479 13.816 99.5893 14.712C99.9519 15.5867 100.443 16.344 101.061 16.984C101.701 17.624 102.448 18.1147 103.301 18.456C104.155 18.7973 105.083 18.968 106.085 18.968ZM136.317 23.384C134.547 23.384 132.904 23.096 131.389 22.52C129.896 21.944 128.595 21.1333 127.485 20.088C126.397 19.0427 125.544 17.816 124.925 16.408C124.328 15 124.029 13.464 124.029 11.8C124.029 10.136 124.328 8.6 124.925 7.192C125.544 5.784 126.408 4.55733 127.517 3.512C128.627 2.46667 129.928 1.656 131.421 1.08C132.915 0.503999 134.536 0.216 136.285 0.216C138.056 0.216 139.677 0.503999 141.149 1.08C142.643 1.656 143.933 2.46667 145.021 3.512C146.131 4.55733 146.995 5.784 147.613 7.192C148.232 8.57867 148.541 10.1147 148.541 11.8C148.541 13.464 148.232 15.0107 147.613 16.44C146.995 17.848 146.131 19.0747 145.021 20.12C143.933 21.144 142.643 21.944 141.149 22.52C139.677 23.096 138.067 23.384 136.317 23.384ZM136.285 18.968C137.288 18.968 138.205 18.7973 139.037 18.456C139.891 18.1147 140.637 17.624 141.277 16.984C141.917 16.344 142.408 15.5867 142.749 14.712C143.112 13.8373 143.293 12.8667 143.293 11.8C143.293 10.7333 143.112 9.76267 142.749 8.888C142.408 8.01333 141.917 7.256 141.277 6.616C140.659 5.976 139.923 5.48533 139.069 5.144C138.216 4.80267 137.288 4.632 136.285 4.632C135.283 4.632 134.355 4.80267 133.501 5.144C132.669 5.48533 131.933 5.976 131.293 6.616C130.653 7.256 130.152 8.01333 129.789 8.888C129.448 9.76267 129.277 10.7333 129.277 11.8C129.277 12.8453 129.448 13.816 129.789 14.712C130.152 15.5867 130.643 16.344 131.261 16.984C131.901 17.624 132.648 18.1147 133.501 18.456C134.355 18.7973 135.283 18.968 136.285 18.968ZM159.965 23V4.824H152.797V0.599998H172.317V4.824H165.149V23H159.965ZM185.51 23.384C183.718 23.384 182 23.1493 180.358 22.68C178.715 22.1893 177.392 21.56 176.39 20.792L178.15 16.888C179.11 17.5707 180.24 18.136 181.542 18.584C182.864 19.0107 184.198 19.224 185.542 19.224C186.566 19.224 187.387 19.128 188.006 18.936C188.646 18.7227 189.115 18.4347 189.414 18.072C189.712 17.7093 189.862 17.2933 189.862 16.824C189.862 16.2267 189.627 15.7573 189.158 15.416C188.688 15.0533 188.07 14.7653 187.302 14.552C186.534 14.3173 185.68 14.104 184.742 13.912C183.824 13.6987 182.896 13.4427 181.958 13.144C181.04 12.8453 180.198 12.4613 179.43 11.992C178.662 11.5227 178.032 10.904 177.542 10.136C177.072 9.368 176.838 8.38667 176.838 7.192C176.838 5.912 177.179 4.74933 177.862 3.704C178.566 2.63733 179.611 1.79467 180.998 1.176C182.406 0.535999 184.166 0.216 186.278 0.216C187.686 0.216 189.072 0.386666 190.438 0.727999C191.803 1.048 193.008 1.53867 194.054 2.2L192.454 6.136C191.408 5.53867 190.363 5.10133 189.318 4.824C188.272 4.52533 187.248 4.376 186.246 4.376C185.243 4.376 184.422 4.49333 183.782 4.728C183.142 4.96267 182.683 5.272 182.406 5.656C182.128 6.01867 181.99 6.44533 181.99 6.936C181.99 7.512 182.224 7.98133 182.694 8.344C183.163 8.68533 183.782 8.96267 184.55 9.176C185.318 9.38933 186.16 9.60267 187.078 9.816C188.016 10.0293 188.944 10.2747 189.862 10.552C190.8 10.8293 191.654 11.2027 192.422 11.672C193.19 12.1413 193.808 12.76 194.278 13.528C194.768 14.296 195.014 15.2667 195.014 16.44C195.014 17.6987 194.662 18.8507 193.958 19.896C193.254 20.9413 192.198 21.784 190.79 22.424C189.403 23.064 187.643 23.384 185.51 23.384Z" fill="black"/>
</svg>
